<?xml version="1.0" encoding="UTF-8" standalone="no" ?>
<!DOCTYPE svg PUBLIC "-//W3C//DTD SVG 1.1//EN" "http://www.w3.org/Graphics/SVG/1.1/DTD/svg11.dtd">
<svg xmlns="http://www.w3.org/2000/svg" xmlns:xlink="http://www.w3.org/1999/xlink" version="1.1" width="1080" height="1080" viewBox="0 0 1080 1080" xml:space="preserve">
<desc>Created with Fabric.js 5.2.4</desc>
<defs>
</defs>
<rect x="0" y="0" width="100%" height="100%" fill="transparent"></rect>
<g transform="matrix(1 0 0 1 540 540)" id="4330a42b-e82e-4dcf-9e01-170a4b22a0c9"  >
<rect style="stroke: none; stroke-width: 1; stroke-dasharray: none; stroke-linecap: butt; stroke-dashoffset: 0; stroke-linejoin: miter; stroke-miterlimit: 4; fill: rgb(255,255,255); fill-rule: nonzero; opacity: 1; visibility: hidden;" vector-effect="non-scaling-stroke"  x="-540" y="-540" rx="0" ry="0" width="1080" height="1080" />
</g>
<g transform="matrix(1 0 0 1 540 540)" id="97ca6d64-b413-44ba-9077-746f90b869fe"  >
</g>
<g transform="matrix(73.77 0 0 73.77 540 701.95)"  >
<path style="stroke: none; stroke-width: 1; stroke-dasharray: none; stroke-linecap: butt; stroke-dashoffset: 0; stroke-linejoin: miter; stroke-miterlimit: 4; fill: rgb(255,255,255); fill-rule: nonzero; opacity: 1;"  transform=" translate(-6.5, -5.75)" d="M 1.61328 4.66211 C 1.29297 4.66211 1.04297 4.57422 0.863281 4.39844 C 0.683594 4.22266 0.59375 3.97852 0.59375 3.66602 L 0.59375 1.69727 C 0.59375 1.38867 0.683594 1.14648 0.863281 0.970703 C 1.04297 0.794922 1.29297 0.707031 1.61328 0.707031 L 3.5293 0.707031 C 3.84961 0.707031 4.09961 0.794922 4.2793 0.970703 C 4.45898 1.14648 4.54883 1.38867 4.54883 1.69727 L 4.54883 3.66602 C 4.54883 3.97852 4.45898 4.22266 4.2793 4.39844 C 4.09961 4.57422 3.84961 4.66211 3.5293 4.66211 L 1.61328 4.66211 Z M 1.61328 10.7969 C 1.29297 10.7969 1.04297 10.709 0.863281 10.5332 C 0.683594 10.3613 0.59375 10.1191 0.59375 9.80664 L 0.59375 7.83789 C 0.59375 7.52539 0.683594 7.2832 0.863281 7.11133 C 1.04297 6.93555 1.29297 6.84766 1.61328 6.84766 L 3.5293 6.84766 C 3.84961 6.84766 4.09961 6.93555 4.2793 7.11133 C 4.45898 7.2832 4.54883 7.52539 4.54883 7.83789 L 4.54883 9.80664 C 4.54883 10.1191 4.45898 10.3613 4.2793 10.5332 C 4.09961 10.709 3.84961 10.7969 3.5293 10.7969 L 1.61328 10.7969 Z M 6.24805 1.5918 C 6.12305 1.5918 6.01758 1.54883 5.93164 1.46289 C 5.8457 1.37695 5.80273 1.27148 5.80273 1.14648 C 5.80273 1.02539 5.8457 0.921875 5.93164 0.835938 C 6.01758 0.75 6.12305 0.707031 6.24805 0.707031 L 11.9492 0.707031 C 12.0742 0.707031 12.1797 0.75 12.2656 0.835938 C 12.3555 0.921875 12.4004 1.02539 12.4004 1.14648 C 12.4004 1.27148 12.3555 1.37695 12.2656 1.46289 C 12.1797 1.54883 12.0742 1.5918 11.9492 1.5918 L 6.24805 1.5918 Z M 6.24805 4.66211 C 6.12305 4.66211 6.01758 4.61914 5.93164 4.5332 C 5.8457 4.44727 5.80273 4.3418 5.80273 4.2168 C 5.80273 4.0918 5.8457 3.98828 5.93164 3.90625 C 6.01758 3.82031 6.12305 3.77734 6.24805 3.77734 L 11.9492 3.77734 C 12.0742 3.77734 12.1797 3.82031 12.2656 3.90625 C 12.3555 3.98828 12.4004 4.0918 12.4004 4.2168 C 12.4004 4.3418 12.3555 4.44727 12.2656 4.5332 C 12.1797 4.61914 12.0742 4.66211 11.9492 4.66211 L 6.24805 4.66211 Z M 6.24805 7.73242 C 6.12305 7.73242 6.01758 7.68945 5.93164 7.60352 C 5.8457 7.51758 5.80273 7.41211 5.80273 7.28711 C 5.80273 7.16211 5.8457 7.05859 5.93164 6.97656 C 6.01758 6.89062 6.12305 6.84766 6.24805 6.84766 L 11.9492 6.84766 C 12.0742 6.84766 12.1797 6.89062 12.2656 6.97656 C 12.3555 7.05859 12.4004 7.16211 12.4004 7.28711 C 12.4004 7.41211 12.3555 7.51758 12.2656 7.60352 C 12.1797 7.68945 12.0742 7.73242 11.9492 7.73242 L 6.24805 7.73242 Z M 6.24805 10.7969 C 6.12305 10.7969 6.01758 10.7539 5.93164 10.668 C 5.8457 10.5859 5.80273 10.4824 5.80273 10.3574 C 5.80273 10.2324 5.8457 10.127 5.93164 10.041 C 6.01758 9.95508 6.12305 9.91211 6.24805 9.91211 L 11.9492 9.91211 C 12.0742 9.91211 12.1797 9.95508 12.2656 10.041 C 12.3555 10.127 12.4004 10.2324 12.4004 10.3574 C 12.4004 10.4824 12.3555 10.5859 12.2656 10.668 C 12.1797 10.7539 12.0742 10.7969 11.9492 10.7969 L 6.24805 10.7969 Z" stroke-linecap="round" />
</g>
</svg>